# Rhino

v -0.6413044929504395 -0.0771087110042572 0.01060720812529326
v -1.208959221839905 -0.001473403885029256 0.01060720812529326
v -0.6426432728767395 -0.08715660125017166 0.01060720812529326
v -1.21029794216156 -0.01152129471302033 0.01060720812529326
v -1.095428228378296 -0.0166004654020071 0.01060720812529326
v -0.9818972945213318 -0.03172752633690834 0.01060720812529326
v -0.8683663606643677 -0.04685458913445473 0.01060720812529326
v -0.7548354268074036 -0.06198164820671082 0.01060720812529326
v -0.6419739127159119 -0.08213265985250473 0.01060720812529326
v -0.7561742067337036 -0.07202953845262528 0.01060720812529326
v -0.8697052001953125 -0.05690247938036919 0.01060720812529326
v -0.9832361340522766 -0.0417754165828228 0.01060720812529326
v -1.096767067909241 -0.02664835564792156 0.01060720812529326
v -1.208959221839905 -0.001473403885029256 0.01060720812529326
v -1.229054927825928 0.001204193569719791 -0.009666172787547112
v -1.21029794216156 -0.01152129471302033 0.01060720812529326
v -1.230393767356873 -0.008843697607517242 -0.009666172787547112
v -1.220345854759216 -0.01018249616026878 0.0004705175233539194
v -1.219007015228272 -0.0001346051576547325 0.0004705175233539194
v -0.9199441075325012 -0.03998228535056114 0.0004705175233539194
v -0.9212828874588013 -0.0500301755964756 0.0004705175233539194
v -0.9199441075325012 -0.03998228535056114 -0.009666172787547112
v -0.9206134676933289 -0.04500623047351837 -0.009666172787547112
v -0.9206134676933289 -0.04500623047351837 0.0004705175233539194
v -0.9199441075325012 -0.03998228535056114 -0.004597827792167664
v -0.9212828874588013 -0.0500301755964756 -0.009666172787547112
v -0.9212828874588013 -0.0500301755964756 -0.004597827792167664
v -1.027980923652649 -0.03581353649497032 -0.1110330820083618
v -1.026642203330994 -0.02576564438641071 -0.1110330820083618
v -1.229054927825928 0.001204193569719791 -0.1110330820083618
v -1.230393767356873 -0.008843697607517242 -0.1110330820083618
v -1.127848505973816 -0.01228072494268417 -0.1110330820083618
v -1.129187345504761 -0.02232861705124378 -0.1110330820083618
v -1.027980923652649 -0.03581353649497032 -0.1414431482553482
v -1.027980923652649 -0.03581353649497032 -0.1110330820083618
v -1.026642203330994 -0.02576564438641071 -0.1414431482553482
v -1.026642203330994 -0.02576564438641071 -0.1110330820083618
v -1.026642203330994 -0.02576564438641071 -0.1262381225824356
v -1.027980923652649 -0.03581353649497032 -0.1262381225824356
v -1.229054927825928 0.001204193569719791 -0.009666172787547112
v -1.229054927825928 0.001204193569719791 -0.1110330820083618
v -1.230393767356873 -0.008843697607517242 -0.009666172787547112
v -1.230393767356873 -0.008843697607517242 -0.1110330820083618
v -1.229054927825928 0.001204193569719791 -0.06034962832927704
v -1.230393767356873 -0.008843697607517242 -0.06034962832927704
v -0.8236215114593506 -0.0528164729475975 -0.1110330820083618
v -0.8249602913856506 -0.06286436319351196 -0.1110330820083618
v -0.6225475072860718 -0.08983419835567474 -0.1110330820083618
v -0.6212087273597717 -0.07978630810976028 -0.1110330820083618
v -0.7224150896072388 -0.06630139052867889 -0.1110330820083618
v -0.7237539291381836 -0.07634928077459335 -0.1110330820083618
v -0.8249602913856506 -0.06286436319351196 -0.1414431482553482
v -0.8236215114593506 -0.0528164729475975 -0.1414431482553482
v -0.8249602913856506 -0.06286436319351196 -0.1110330820083618
v -0.8236215114593506 -0.0528164729475975 -0.1110330820083618
v -0.8236215114593506 -0.0528164729475975 -0.1262381225824356
v -0.8249602913856506 -0.06286436319351196 -0.1262381225824356
v -0.6212087273597717 -0.07978630810976028 -0.1110330820083618
v -0.6212087273597717 -0.07978630810976028 -0.04672923311591148
v -0.6225475072860718 -0.08983419835567474 -0.1110330820083618
v -0.6225475072860718 -0.08983419835567474 -0.04672923311591148
v -0.6212087273597717 -0.07978630810976028 -0.0788811594247818
v -0.6225475072860718 -0.08983419835567474 -0.0788811594247818
v -1.027980923652649 -0.03581353649497032 -0.1414431482553482
v -0.8249602913856506 -0.06286436319351196 -0.1414431482553482
v -1.026642203330994 -0.02576564438641071 -0.1414431482553482
v -0.8236215114593506 -0.0528164729475975 -0.1414431482553482
v -0.9251318573951721 -0.03929105773568153 -0.1414431482553482
v -0.9264706373214722 -0.04933894798159599 -0.1414431482553482
v -0.6381898522377014 -0.08023747056722641 0.007106640841811895
v -0.6384453177452087 -0.08395969122648239 0.006868231575936079
v -0.6387007832527161 -0.08768191188573837 0.006629822310060263
v -0.645300030708313 -0.08680261671543121 0.0004705175233539194
v -0.645300030708313 -0.08352004736661911 0.0004705175233539194
v -0.645300030708313 -0.08023747056722641 0.0004705175233539194
v -0.6420003771781921 -0.08724226802587509 0.003550170455127955
v -0.6417449712753296 -0.08023747056722641 0.003788579255342484
v -0.6413044929504395 -0.0771087110042572 0.01060720812529326
v -0.6387007832527161 -0.08768191188573837 0.006629822310060263
v -0.6426432728767395 -0.08715660125017166 0.01060720812529326
v -0.6419739127159119 -0.08213265985250473 0.01060720812529326
v -0.6393860578536987 -0.07736432552337647 0.008671810850501061
v -0.6381898522377014 -0.08023747056722641 0.007106640841811895
v -0.6384453177452087 -0.08395969122648239 0.006868231575936079
v -0.9199441075325012 -0.03998228535056114 -0.009666172787547112
v -0.9206134676933289 -0.04500623047351837 -0.009666172787547112
v -0.9212828874588013 -0.0500301755964756 -0.009666172787547112
v -0.6965485215187073 -0.06974789500236511 -0.009666172787547112
v -0.8082463145256043 -0.05486509203910828 -0.009666172787547112
v -0.8095850944519043 -0.06491298228502274 -0.009666172787547112
v -0.6978873610496521 -0.07979578524827957 -0.009666172787547112
v -0.9199441075325012 -0.03998228535056114 0.0004705175233539194
v -0.9206134676933289 -0.04500623047351837 0.0004705175233539194
v -0.9212828874588013 -0.0500301755964756 0.0004705175233539194
v -0.6495239734649658 -0.07601353526115418 0.0004705175233539194
v -0.7396640181541443 -0.0640031173825264 0.0004705175233539194
v -0.8298040628433228 -0.05199270322918892 0.0004705175233539194
v -0.8292886018753052 -0.06228765472769737 0.0004705175233539194
v -0.7372943162918091 -0.07454513758420944 0.0004705175233539194
v -0.645300030708313 -0.08023747056722641 0.0004705175233539194
v -0.645300030708313 -0.08680261671543121 0.0004705175233539194
v -0.645300030708313 -0.08352004736661911 0.0004705175233539194
v -1.080132603645325 -0.01863847859203816 -0.06541797518730164
v -1.080132603645325 -0.01863847859203816 -0.02664512954652309
v -0.9251318573951721 -0.03929105773568153 -0.06541797518730164
v -0.9251318573951721 -0.03929105773568153 -0.02664512954652309
v -0.7701310515403748 -0.05994363501667976 -0.06541797518730164
v -0.7701310515403748 -0.05994363501667976 -0.02664512954652309
v -0.6413044929504395 -0.0771087110042572 0.01060720812529326
v -0.7548354268074036 -0.06198164820671082 0.01060720812529326
v -0.8683663606643677 -0.04685458913445473 0.01060720812529326
v -0.9818972945213318 -0.03172752633690834 0.01060720812529326
v -1.095428228378296 -0.0166004654020071 0.01060720812529326
v -1.208959221839905 -0.001473403885029256 0.01060720812529326
v -1.229054927825928 0.001204193569719791 -0.009666172787547112
v -1.229054927825928 0.001204193569719791 -0.06034962832927704
v -1.229054927825928 0.001204193569719791 -0.1110330820083618
v -1.219007015228272 -0.0001346051576547325 0.0004705175233539194
v -0.6965485215187073 -0.06974789500236511 -0.009666172787547112
v -0.8082463145256043 -0.05486509203910828 -0.009666172787547112
v -0.9199441075325012 -0.03998228535056114 -0.009666172787547112
v -0.9199441075325012 -0.03998228535056114 0.0004705175233539194
v -0.8298040628433228 -0.05199270322918892 0.0004705175233539194
v -0.7396640181541443 -0.0640031173825264 0.0004705175233539194
v -0.6495239734649658 -0.07601353526115418 0.0004705175233539194
v -0.9199441075325012 -0.03998228535056114 -0.004597827792167664
v -1.127848505973816 -0.01228072494268417 -0.1110330820083618
v -1.026642203330994 -0.02576564438641071 -0.1110330820083618
v -1.026642203330994 -0.02576564438641071 -0.1262381225824356
v -1.026642203330994 -0.02576564438641071 -0.1414431482553482
v -0.9251318573951721 -0.03929105773568153 -0.1414431482553482
v -0.8236215114593506 -0.0528164729475975 -0.1414431482553482
v -0.8236215114593506 -0.0528164729475975 -0.1110330820083618
v -0.7224150896072388 -0.06630139052867889 -0.1110330820083618
v -0.6212087273597717 -0.07978630810976028 -0.1110330820083618
v -0.8236215114593506 -0.0528164729475975 -0.1262381225824356
v -0.6212087273597717 -0.07978630810976028 -0.0788811594247818
v -0.6212087273597717 -0.07978630810976028 -0.04672923311591148
v -0.6444550156593323 -0.07668893039226532 0.004571163095533848
v -0.6393860578536987 -0.07736432552337647 0.008671810850501061
v -0.6588786244392395 -0.074767105281353 -0.02819770760834217
v -1.08147144317627 -0.02868637070059776 -0.06541797518730164
v -1.08147144317627 -0.02868637070059776 -0.02664512954652309
v -0.9264706373214722 -0.04933894798159599 -0.06541797518730164
v -0.9264706373214722 -0.04933894798159599 -0.02664512954652309
v -0.7714698314666748 -0.06999152898788452 -0.06541797518730164
v -0.7714698314666748 -0.06999152898788452 -0.02664512954652309
v -0.6426432728767395 -0.08715660125017166 0.01060720812529326
v -0.7561742067337036 -0.07202953845262528 0.01060720812529326
v -0.8697052001953125 -0.05690247938036919 0.01060720812529326
v -0.9832361340522766 -0.0417754165828228 0.01060720812529326
v -1.096767067909241 -0.02664835564792156 0.01060720812529326
v -1.21029794216156 -0.01152129471302033 0.01060720812529326
v -1.230393767356873 -0.008843697607517242 -0.009666172787547112
v -1.230393767356873 -0.008843697607517242 -0.06034962832927704
v -1.230393767356873 -0.008843697607517242 -0.1110330820083618
v -1.220345854759216 -0.01018249616026878 0.0004705175233539194
v -0.6978873610496521 -0.07979578524827957 -0.009666172787547112
v -0.8095850944519043 -0.06491298228502274 -0.009666172787547112
v -0.9212828874588013 -0.0500301755964756 -0.009666172787547112
v -0.9212828874588013 -0.0500301755964756 0.0004705175233539194
v -0.8292886018753052 -0.06228765472769737 0.0004705175233539194
v -0.7372943162918091 -0.07454513758420944 0.0004705175233539194
v -0.645300030708313 -0.08680261671543121 0.0004705175233539194
v -0.9212828874588013 -0.0500301755964756 -0.004597827792167664
v -1.129187345504761 -0.02232861705124378 -0.1110330820083618
v -1.027980923652649 -0.03581353649497032 -0.1110330820083618
v -1.027980923652649 -0.03581353649497032 -0.1262381225824356
v -1.027980923652649 -0.03581353649497032 -0.1414431482553482
v -0.9264706373214722 -0.04933894798159599 -0.1414431482553482
v -0.8249602913856506 -0.06286436319351196 -0.1414431482553482
v -0.8249602913856506 -0.06286436319351196 -0.1110330820083618
v -0.7237539291381836 -0.07634928077459335 -0.1110330820083618
v -0.6225475072860718 -0.08983419835567474 -0.1110330820083618
v -0.8249602913856506 -0.06286436319351196 -0.1262381225824356
v -0.6225475072860718 -0.08983419835567474 -0.0788811594247818
v -0.6225475072860718 -0.08983419835567474 -0.04672923311591148
v -0.6420003771781921 -0.08724226802587509 0.003550170455127955
v -0.6387007832527161 -0.08768191188573837 0.006629822310060263
v -0.6602174639701843 -0.08481499552726746 -0.02819770015776157
v -0.6495239734649658 -0.07601353526115418 0.0004705175233539194
v -0.6393860578536987 -0.07736432552337647 0.008671810850501061
v -0.645300030708313 -0.08023747056722641 0.0004705175233539194
v -0.6444550156593323 -0.07668893039226532 0.004571163095533848
v -0.6381898522377014 -0.08023747056722641 0.007106640841811895
v -0.6417449712753296 -0.08023747056722641 0.003788579255342484
v -0.6212087273597717 -0.07978630810976028 -0.04672923311591148
v -0.6225475072860718 -0.08983419835567474 -0.04672923311591148
v -0.6978873610496521 -0.07979578524827957 -0.009666172787547112
v -0.6965485215187073 -0.06974789500236511 -0.009666172787547112
v -0.6588786244392395 -0.074767105281353 -0.02819770760834217
v -0.6602174639701843 -0.08481499552726746 -0.02819770015776157
vn 0 0 1
vn 0 0 1
vn 0 0 1
vn 0 0 1
vn 0 0 1
vn 0 0 1
vn 0 0 1
vn 5.650581606551814e-18 4.240848790568721e-17 1
vn 0 0 1
vn 5.650581606551814e-18 4.240848790568721e-17 1
vn 0 0 1
vn 0 0 1
vn 0 0 1
vn -0.700912356376648 0.09339080005884171 0.7071067690849304
vn -0.700912356376648 0.09339080005884171 0.7071067690849304
vn -0.700912356376648 0.09339080005884171 0.7071067690849304
vn -0.700912356376648 0.09339080005884171 0.7071067690849304
vn -0.700912356376648 0.09339080005884171 0.7071067690849304
vn -0.700912356376648 0.09339080005884171 0.7071067690849304
vn 0.9912397861480713 -0.1320745348930359 0
vn 0.9912397861480713 -0.1320745348930359 0
vn 0.9912397861480713 -0.1320745348930359 0
vn 0.9912397861480713 -0.1320745348930359 0
vn 0.9912397861480713 -0.1320745348930359 0
vn 0.9912397861480713 -0.1320745348930359 0
vn 0.9912397861480713 -0.1320745348930359 0
vn 0.9912397861480713 -0.1320745348930359 0
vn 0 5.347910016564067e-18 -1
vn 0 -1.069582003312813e-17 -1
vn 0 5.347910016564067e-18 -1
vn 0 -5.347910016564067e-18 -1
vn 0 0 -1
vn 0 -5.347910016564067e-18 -1
vn -0.9912397861480713 0.1320745348930359 0
vn -0.9912397861480713 0.1320745348930359 0
vn -0.9912397861480713 0.1320745348930359 0
vn -0.9912397861480713 0.1320745348930359 0
vn -0.9912397861480713 0.1320745348930359 0
vn -0.9912397861480713 0.1320745348930359 0
vn -0.9912397861480713 0.1320745348930359 0
vn -0.9912397861480713 0.1320745348930359 0
vn -0.9912397861480713 0.1320745348930359 0
vn -0.9912397861480713 0.1320745348930359 0
vn -0.9912397861480713 0.1320745348930359 0
vn -0.9912397861480713 0.1320745348930359 0
vn 0 1.069582003312813e-17 -1
vn 0 1.069582003312813e-17 -1
vn 0 0 -1
vn 0 5.347910016564067e-18 -1
vn 0 -5.347910016564067e-18 -1
vn 0 -5.347910016564067e-18 -1
vn 0.9912397861480713 -0.1320745348930359 1.765806752047442e-19
vn 0.9912397861480713 -0.1320745348930359 -2.295548829360463e-18
vn 0.9912397861480713 -0.1320745348930359 1.765806752047442e-19
vn 0.9912397861480713 -0.1320745348930359 2.11896810245693e-18
vn 0.9912397861480713 -0.1320745348930359 1.722826633534824e-16
vn 0.9912397861480713 -0.1320745348930359 1.765806752047442e-19
vn 0.9912397861480713 -0.1320745348930359 0
vn 0.9912397861480713 -0.1320745348930359 0
vn 0.9912397861480713 -0.1320745348930359 0
vn 0.9912397861480713 -0.1320745348930359 0
vn 0.9912397861480713 -0.1320745348930359 0
vn 0.9912397861480713 -0.1320745348930359 0
vn 9.040930570482903e-17 6.785358064909954e-16 -1
vn 1.808186114096581e-16 1.357071612981991e-15 -1
vn 9.040930570482903e-17 6.785358064909954e-16 -1
vn 1.808186114096581e-16 1.357071612981991e-15 -1
vn 0 0 -1
vn 0 0 -1
vn 0.6823182702064514 -2.195961279483072e-08 -0.7310552597045898
vn 0.6823182702064514 -2.195961101847388e-08 -0.7310552597045898
vn 0.6823182702064514 -2.195961279483072e-08 -0.7310552597045898
vn 0.6823182702064514 -2.195961101847388e-08 -0.7310552597045898
vn 0.6823182702064514 -2.195961101847388e-08 -0.7310552597045898
vn 0.6823182702064514 -2.195961101847388e-08 -0.7310552597045898
vn 0.6823182702064514 -2.195961101847388e-08 -0.7310552597045898
vn 0.6823182702064514 -2.195961101847388e-08 -0.7310552597045898
vn 0.700912356376648 -0.09339080005884171 0.7071067690849304
vn 0.700912356376648 -0.09339080005884171 0.7071067690849304
vn 0.700912356376648 -0.09339080005884171 0.7071067690849304
vn 0.700912356376648 -0.09339080005884171 0.7071067690849304
vn 0.700912356376648 -0.09339080005884171 0.7071067690849304
vn 0.700912356376648 -0.09339080005884171 0.7071067690849304
vn 0.700912356376648 -0.09339080005884171 0.7071067690849304
vn 0 0 1
vn 0 0 1
vn 0 0 1
vn 0 0 1
vn 0 0 1
vn 0 0 1
vn 0 0 1
vn 0 0 -1
vn 0 0 -1
vn 0 0 -1
vn 0 0 -1
vn 0 0 -1
vn 0 0 -1
vn 0 0 -1
vn 0 0 -1
vn 0 0 -1
vn 0 0 -1
vn 0 0 -1
vn 0.1320745348930359 0.9912397861480713 0
vn 0.1320745348930359 0.9912397861480713 0
vn 0.1320745348930359 0.9912397861480713 0
vn 0.1320745348930359 0.9912397861480713 0
vn 0.1320745348930359 0.9912397861480713 0
vn 0.1320745348930359 0.9912397861480713 0
vn 0.1320745348930359 0.9912397861480713 0
vn 0.1320745348930359 0.9912397861480713 0
vn 0.1320745348930359 0.9912397861480713 0
vn 0.1320745348930359 0.9912397861480713 0
vn 0.1320745348930359 0.9912397861480713 0
vn 0.1320745348930359 0.9912397861480713 0
vn 0.1320745348930359 0.9912397861480713 0
vn 0.1320745348930359 0.9912397861480713 0
vn 0.1320745348930359 0.9912397861480713 0
vn 0.1320745348930359 0.9912397861480713 0
vn 0.1320745348930359 0.9912397861480713 0
vn 0.1320745348930359 0.9912397861480713 0
vn 0.1320745348930359 0.9912397861480713 0
vn 0.1320745348930359 0.9912397861480713 0
vn 0.1320745348930359 0.9912397861480713 0
vn 0.1320745348930359 0.9912397861480713 0
vn 0.1320745348930359 0.9912397861480713 0
vn 0.1320745348930359 0.9912397861480713 0
vn 0.1320745348930359 0.9912397861480713 0
vn 0.1320745348930359 0.9912397861480713 0
vn 0.1320745348930359 0.9912397861480713 0
vn 0.1320745348930359 0.9912397861480713 0
vn 0.1320745348930359 0.9912397861480713 0
vn 0.1320745348930359 0.9912397861480713 0
vn 0.1320745348930359 0.9912397861480713 0
vn 0.1320745348930359 0.9912397861480713 0
vn 0.1320745348930359 0.9912397861480713 0
vn 0.1320745348930359 0.9912397861480713 0
vn 0.1320745348930359 0.9912397861480713 0
vn 0.1320745348930359 0.9912397861480713 0
vn 0.1320745348930359 0.9912397861480713 0
vn 0.1320745348930359 0.9912397861480713 0
vn 0.1320745348930359 0.9912397861480713 0
vn -0.1320745348930359 -0.9912397861480713 0
vn -0.1320745348930359 -0.9912397861480713 0
vn -0.1320745348930359 -0.9912397861480713 0
vn -0.1320745348930359 -0.9912397861480713 0
vn -0.1320745348930359 -0.9912397861480713 0
vn -0.1320745348930359 -0.9912397861480713 0
vn -0.1320745348930359 -0.9912397861480713 0
vn -0.1320745348930359 -0.9912397861480713 0
vn -0.1320745348930359 -0.9912397861480713 0
vn -0.1320745348930359 -0.9912397861480713 0
vn -0.1320745348930359 -0.9912397861480713 0
vn -0.1320745348930359 -0.9912397861480713 0
vn -0.1320745348930359 -0.9912397861480713 0
vn -0.1320745348930359 -0.9912397861480713 0
vn -0.1320745348930359 -0.9912397861480713 0
vn -0.1320745348930359 -0.9912397861480713 0
vn -0.1320745348930359 -0.9912397861480713 0
vn -0.1320745348930359 -0.9912397861480713 0
vn -0.1320745348930359 -0.9912397861480713 0
vn -0.1320745348930359 -0.9912397861480713 0
vn -0.1320745348930359 -0.9912397861480713 0
vn -0.1320745348930359 -0.9912397861480713 0
vn -0.1320745348930359 -0.9912397861480713 0
vn -0.1320745348930359 -0.9912397861480713 0
vn -0.1320745348930359 -0.9912397861480713 0
vn -0.1320745348930359 -0.9912397861480713 0
vn -0.1320745348930359 -0.9912397861480713 0
vn -0.1320745348930359 -0.9912397861480713 0
vn -0.1320745348930359 -0.9912397861480713 0
vn -0.1320745348930359 -0.9912397861480713 0
vn -0.1320745348930359 -0.9912397861480713 0
vn -0.1320745348930359 -0.9912397861480713 0
vn -0.1320745348930359 -0.9912397861480713 0
vn -0.1320745348930359 -0.9912397861480713 0
vn -0.1320745348930359 -0.9912397861480713 0
vn -0.1320745348930359 -0.9912397861480713 0
vn -0.1320745348930359 -0.9912397861480713 0
vn -0.1320745348930359 -0.9912397861480713 0
vn -0.1320745348930359 -0.9912397861480713 0
vn 0.5636187791824341 0.5636187791824341 -0.6038772463798523
vn 0.5636187791824341 0.5636187791824341 -0.6038772463798523
vn 0.5636187791824341 0.5636187791824341 -0.6038772463798523
vn 0.5636187791824341 0.5636187791824341 -0.6038772463798523
vn 0.5636187791824341 0.5636187791824341 -0.6038772463798523
vn 0.5636187791824341 0.5636187791824341 -0.6038772463798523
vn 0.4344610869884491 -0.05788835883140564 0.898828387260437
vn 0.4344610869884491 -0.05788835883140564 0.898828387260437
vn 0.4344610869884491 -0.05788835883140564 0.898828387260437
vn 0.4344610869884491 -0.05788835883140564 0.898828387260437
vn 0.4344610869884491 -0.05788835883140564 0.898828387260437
vn 0.4344610869884491 -0.05788835883140564 0.898828387260437
f 9//9 1//1 8//8
f 9//9 8//8 7//7
f 5//5 13//13 12//12 6//6
f 2//2 4//4 13//13 5//5
f 6//6 9//9 7//7
f 10//10 3//3 9//9
f 11//11 10//10 9//9
f 9//9 12//12 11//11
f 12//12 9//9 6//6
f 19//19 18//18 16//16 14//14
f 15//15 17//17 18//18 19//19
f 25//25 23//23 22//22
f 25//25 20//20 24//24
f 24//24 23//23 25//25
f 24//24 21//21 27//27 23//23
f 26//26 23//23 27//27
f 33//33 29//29 28//28
f 32//32 29//29 33//33
f 31//31 30//30 32//32
f 33//33 31//31 32//32
f 39//39 38//38 36//36 34//34
f 35//35 37//37 38//38 39//39
f 44//44 45//45 42//42 40//40
f 41//41 43//43 45//45 44//44
f 51//51 49//49 48//48
f 50//50 49//49 51//51
f 47//47 46//46 50//50
f 51//51 47//47 50//50
f 56//56 57//57 52//52 53//53
f 57//57 56//56 55//55 54//54
f 62//62 63//63 60//60 58//58
f 59//59 61//61 63//63 62//62
f 68//68 69//69 64//64 66//66
f 67//67 65//65 69//69 68//68
f 77//77 76//76 74//74
f 74//74 76//76 73//73
f 77//77 74//74 75//75
f 71//71 77//77 70//70
f 71//71 72//72 76//76
f 77//77 71//71 76//76
f 81//81 82//82 78//78
f 83//83 82//82 81//81
f 80//80 79//79 84//84
f 84//84 81//81 80//80
f 83//83 81//81 84//84
f 89//89 86//86 87//87
f 89//89 85//85 86//86
f 90//90 91//91 88//88
f 87//87 90//90 89//89
f 88//88 89//89 90//90
f 96//96 98//98 97//97
f 94//94 97//97 98//98
f 97//97 94//94 93//93
f 97//97 93//93 92//92
f 99//99 102//102 101//101
f 99//99 100//100 102//102
f 95//95 99//99 96//96
f 98//98 96//96 99//99
f 100//100 99//99 95//95
f 106//106 105//105 103//103 104//104
f 108//108 107//107 105//105 106//106
f 116//116 127//127 117//117
f 103//103 116//116 115//115 104//104
f 127//127 116//116 103//103
f 103//103 128//128 127//127
f 129//129 131//131 130//130
f 128//128 131//131 129//129
f 128//128 105//105 107//107 133//133
f 103//103 105//105 128//128
f 118//118 104//104 115//115
f 114//114 113//113 118//118
f 104//104 118//118 113//113
f 113//113 112//112 104//104
f 104//104 112//112 121//121
f 106//106 121//121 120//120
f 122//122 126//126 112//112
f 121//121 112//112 126//126
f 111//111 122//122 112//112
f 106//106 104//104 121//121
f 131//131 128//128 133//133
f 136//136 131//131 133//133
f 133//133 107//107 134//134
f 141//141 107//107 108//108
f 120//120 108//108 106//106
f 137//137 135//135 134//134
f 107//107 141//141 138//138
f 138//138 137//137 107//107
f 137//137 134//134 107//107
f 119//119 141//141 108//108
f 120//120 119//119 108//108
f 110//110 123//123 111//111
f 123//123 122//122 111//111
f 124//124 123//123 110//110
f 110//110 109//109 124//124
f 124//124 139//139 125//125
f 109//109 140//140 139//139
f 139//139 124//124 109//109
f 132//132 131//131 136//136
f 145//145 143//143 142//142 144//144
f 147//147 145//145 144//144 146//146
f 155//155 156//156 166//166
f 142//142 143//143 154//154 155//155
f 166//166 142//142 155//155
f 142//142 166//166 167//167
f 168//168 169//169 170//170
f 168//168 170//170 167//167
f 167//167 172//172 146//146 144//144
f 142//142 167//167 144//144
f 157//157 154//154 143//143
f 153//153 157//157 152//152
f 143//143 152//152 157//157
f 152//152 143//143 151//151
f 143//143 160//160 151//151
f 145//145 159//159 160//160
f 161//161 151//151 165//165
f 160//160 165//165 151//151
f 150//150 151//151 161//161
f 145//145 160//160 143//143
f 170//170 172//172 167//167
f 170//170 175//175 172//172
f 172//172 173//173 146//146
f 180//180 147//147 146//146
f 159//159 145//145 147//147
f 176//176 173//173 174//174
f 146//146 177//177 180//180
f 177//177 146//146 176//176
f 176//176 146//146 173//173
f 158//158 147//147 180//180
f 161//161 162//162 150//150
f 150//150 162//162 149//149
f 163//163 149//149 162//162
f 148//148 149//149 163//163
f 147//147 158//158 159//159
f 163//163 164//164 178//178
f 179//179 148//148 178//178
f 178//178 148//148 163//163
f 171//171 175//175 170//170
f 183//183 181//181 184//184
f 182//182 183//183 184//184
f 185//185 186//186 182//182
f 183//183 182//182 186//186
f 192//192 187//187 191//191
f 188//188 187//187 192//192
f 191//191 190//190 189//189
f 192//192 191//191 189//189
